<svg xmlns="http://www.w3.org/2000/svg" viewBox="0 0 512 512">
  <path d="M134 112c0-14 11-25 25-25h26c14 0 25 11 25 25v111c21-31 36-66 46-104 10 38 25 73 46 104V112c0-14 11-25 25-25h26c14 0 25 11 25 25v111c16 11 33 20 52 27-19 7-36 16-52 27v123c0 14-11 25-25 25h-26c-14 0-25-11-25-25V289c-21 31-36 66-46 104-10-38-25-73-46-104v111c0 14-11 25-25 25h-26c-14 0-25-11-25-25V277c-16-11-33-20-52-27 19-7 36-16 52-27V112Z" fill="#000"/>
  <path d="M404 72c6 29 29 52 58 58-29 6-52 29-58 58-6-29-29-52-58-58 29-6 52-29 58-58Z" fill="#000"/>
</svg>
